<svg width="27" height="26" viewBox="0 0 27 26" fill="none" xmlns="http://www.w3.org/2000/svg">
<path d="M8.33332 14.3333V19.6667M19 11.6667V19.6667M13.6667 6.33333V19.6667M8.06666 25H19.2667C21.5069 25 22.627 25 23.4826 24.564C24.2353 24.1805 24.8472 23.5686 25.2307 22.816C25.6667 21.9603 25.6667 20.8402 25.6667 18.6V7.4C25.6667 5.15979 25.6667 4.03969 25.2307 3.18404C24.8472 2.43139 24.2353 1.81947 23.4826 1.43597C22.627 1 21.5069 1 19.2667 1H8.06666C5.82645 1 4.70634 1 3.85069 1.43597C3.09805 1.81947 2.48612 2.43139 2.10263 3.18404C1.66666 4.03969 1.66666 5.15979 1.66666 7.4V18.6C1.66666 20.8402 1.66666 21.9603 2.10263 22.816C2.48612 23.5686 3.09805 24.1805 3.85069 24.564C4.70634 25 5.82645 25 8.06666 25Z" stroke="#667085" stroke-width="2" stroke-linecap="round" stroke-linejoin="round"/>
</svg>
